<?xml version="1.0" encoding="utf-8"?>
<!-- Generator: Adobe Illustrator 26.0.2, SVG Export Plug-In . SVG Version: 6.00 Build 0)  -->
<svg version="1.1" id="Layer_1" xmlns="http://www.w3.org/2000/svg" xmlns:xlink="http://www.w3.org/1999/xlink" x="0px" y="0px"
	 viewBox="0 0 60 60" style="enable-background:new 0 0 60 60;" xml:space="preserve">
<style type="text/css">
	.st0{fill:#FFFFFF;}
</style>
<path class="st0" d="M30,0C13.4,0,0,13.4,0,30s13.4,30,30,30s30-13.4,30-30S46.6,0,30,0z M44.5,41c1,1,1,2.6,0,3.5
	c-0.5,0.5-1.1,0.7-1.8,0.7S41.5,45,41,44.5l-11-11l-11,11c-0.5,0.5-1.1,0.7-1.8,0.7S16,45,15.5,44.5c-1-1-1-2.6,0-3.5l11-11l-11-11
	c-1-1-1-2.6,0-3.5c1-1,2.6-1,3.5,0l11,11l11-11c1-1,2.6-1,3.5,0c1,1,1,2.6,0,3.5l-11,11L44.5,41z"/>
</svg>
