<?xml version="1.0" encoding="utf-8"?>
<!-- Generator: Adobe Illustrator 26.0.2, SVG Export Plug-In . SVG Version: 6.00 Build 0)  -->
<svg version="1.1" id="Layer_1" xmlns="http://www.w3.org/2000/svg" xmlns:xlink="http://www.w3.org/1999/xlink" x="0px" y="0px"
	 viewBox="0 0 60 60" style="enable-background:new 0 0 60 60;" xml:space="preserve">
<style type="text/css">
	.st0{fill:#FFFFFF;}
</style>
<path class="st0" d="M30,0C13.4,0,0,13.4,0,30s13.4,30,30,30s30-13.4,30-30S46.6,0,30,0z M37.5,49.3C37,49.8,36.4,50,35.8,50
	s-1.3-0.2-1.8-0.7L16.5,31.8c-0.5-0.5-0.7-1.1-0.7-1.8s0.3-1.3,0.7-1.8L34,10.7c1-1,2.6-1,3.5,0c1,1,1,2.6,0,3.5L21.8,30l15.7,15.7
	C38.5,46.7,38.5,48.3,37.5,49.3z"/>
</svg>
